<?xml version="1.0" encoding="UTF-8"?>
<svg version="1.1" xmlns="http://www.w3.org/2000/svg" width="48" height="48">
<path d="M0 0 C2 1.1875 2 1.1875 3 3 C3.1875 5.6875 3.1875 5.6875 3 8 C0.58686871 7.53078003 -1.80619179 7.0498364 -4.1875 6.4375 C-6.01326836 5.92178649 -6.01326836 5.92178649 -8 6 C-9.09506492 9.28519475 -9.09960608 11.73663415 -9.0625 15.1875 C-9.05347656 16.27417969 -9.04445313 17.36085938 -9.03515625 18.48046875 C-9.02355469 19.31191406 -9.01195312 20.14335937 -9 21 C-5.37351216 19.73497309 -5.37351216 19.73497309 -2.5 17.3125 C-2.005 16.879375 -1.51 16.44625 -1 16 C3.42105263 16.42105263 3.42105263 16.42105263 5 18 C5.04080783 19.99958364 5.04254356 22.00045254 5 24 C6.32 24 7.64 24 9 24 C9.29245605 23.40461426 9.58491211 22.80922852 9.88623047 22.19580078 C11.21163817 19.50345138 12.54323554 16.81421033 13.875 14.125 C14.33519531 13.18785156 14.79539062 12.25070313 15.26953125 11.28515625 C15.71425781 10.38925781 16.15898438 9.49335938 16.6171875 8.5703125 C17.02565918 7.74289551 17.43413086 6.91547852 17.85498047 6.06298828 C19 4 19 4 21 2 C24.5625 1.8125 24.5625 1.8125 28 2 C29 3 29 3 29.3984375 5.8828125 C29.31542554 11.48468844 26.25658727 16.08551116 23.625 20.875 C22.86316406 22.31746094 22.86316406 22.31746094 22.0859375 23.7890625 C18.29476351 30.85261824 18.29476351 30.85261824 16 32 C14.45976004 32.06950541 12.91665012 32.08452357 11.375 32.0625 C10.14910156 32.04896484 10.14910156 32.04896484 8.8984375 32.03515625 C8.27195312 32.02355469 7.64546875 32.01195312 7 32 C6.67 31.01 6.34 30.02 6 29 C4.35 29 2.7 29 1 29 C0.34 27.35 -0.32 25.7 -1 24 C-1.66 24.66 -2.32 25.32 -3 26 C-8.63994911 26.63676845 -8.63994911 26.63676845 -11 26 C-13.7699937 23.35635689 -14.88542526 21.67312661 -15.53125 17.87890625 C-15.42571128 6.67860906 -15.42571128 6.67860906 -11 2 C-7.19544419 -0.53637054 -4.46052469 -0.59473663 0 0 Z " fill="#FFFFFF" transform="translate(17,10)"/>
</svg>
